# xmcd
#
# Track frame offsets: 
#        150
#        28660
#        39984
#        61823
#        80656
#        91562
#        105984
#        123037
#        137736
#        156336
#        172983
#        180306
#        255808
#
# Disc length: 3515 seconds
#
# Revision: 1
# Processed by: cddbd v1.5.1PL2 Copyright (c) Steve Scherf et al.
# Submitted via: ExactAudioCopy v0.95b3
#
DISCID=8b0db90d
DTITLE=Vedres Csaba - Ephata I. (Tortured and formatted)
DYEAR=2001
DGENRE=Techno
TTITLE0=Tortured and formatted
TTITLE1=What a Still
TTITLE2=Metamorphoses
TTITLE3=Hitch-hike to Las Vegas
TTITLE4=Lay down
TTITLE5=Computer-heathen
TTITLE6=Desert blue dawn
TTITLE7=Soon
TTITLE8=Black flowers, white flowers
TTITLE9=Net Samba
TTITLE10=What's the Way
TTITLE11=The Subway of Death
TTITLE12=Epilogue (Muszorgszkij)
EXTD=YEAR: 2001
EXTT0=
EXTT1=
EXTT2=
EXTT3=
EXTT4=
EXTT5=
EXTT6=
EXTT7=
EXTT8=
EXTT9=
EXTT10=
EXTT11=
EXTT12=
PLAYORDER=
